<?xml version="1.0" encoding="UTF-8" standalone="no"?>
<svg
   xmlns:dc="http://purl.org/dc/elements/1.1/"
   xmlns:cc="http://creativecommons.org/ns#"
   xmlns:rdf="http://www.w3.org/1999/02/22-rdf-syntax-ns#"
   xmlns:svg="http://www.w3.org/2000/svg"
   xmlns="http://www.w3.org/2000/svg"
   viewBox="0 0 185.07468 212.33853"
   height="212.33853"
   width="185.07468"
   version="1.1"
   id="svg2">
  <metadata
     id="metadata8">
    <rdf:RDF>
      <cc:Work
         rdf:about="">
        <dc:format>image/svg+xml</dc:format>
        <dc:type
           rdf:resource="http://purl.org/dc/dcmitype/StillImage" />
        <dc:title></dc:title>
      </cc:Work>
    </rdf:RDF>
  </metadata>
  <defs
     id="defs6" />
  <g
     transform="translate(-26.25,-12.560428)"
     id="g3338">
    <path
       id="path3342-3"
       d="m 166.01218,38.942674 45.3125,26.28082 0,8.61795 0,8.61795 -92.5,0 -92.500002,0 0,-8.61879 0,-8.61878 45.75101,-26.38122 c 25.16305,-14.50966 46.397432,-26.33566 47.187502,-26.27998 0.79007,0.0557 21.82711,11.9276 46.74899,26.38205 z"
       style="fill:#ffff00" />
    <path
       id="path3342"
       d="M 71.5625,198.51672 26.25,172.2359 l 0,-8.61795 0,-8.61795 92.5,0 92.5,0 0,8.61879 0,8.61878 -45.75101,26.38122 c -25.16305,14.50966 -46.39743,26.33566 -47.1875,26.27998 -0.79007,-0.0557 -21.827115,-11.9276 -46.74899,-26.38205 z"
       style="fill:#ffff00" />
    <path
       id="path3340"
       d="m 26.25,118.75 0,-36.25 92.5,0 92.5,0 0,36.25 0,36.25 -92.5,0 -92.5,0 0,-36.25 z"
       style="fill:#0000ff" />
  </g>
</svg>
